<?xml version="1.0" encoding="iso-8859-1"?>
<svg id="Capa_1" enable-background="new 0 0 842 853" height="853" viewBox="0 0 842 853" width="842" xmlns="http://www.w3.org/2000/svg">
  <!--
    The original spiral starts at M753,112 and its open "tail" arrives at ~333,259.
    To make it read as a 6, we add a filled band that bridges this gap,
    matching the stroke weight of the original logo (~75px wide at that section).

    The band is defined by:
    - Outer edge: from (333,259) curving up and right to (753,112)
    - Then a short move inward along the original stroke edge
    - Inner edge: from near (753,112) back down to near (333,259)
    
    We estimate the "inside" of the path at that gap by offsetting ~75px
    perpendicular to the curve direction.

    The curve at the top goes roughly from bottom-left to top-right,
    center of curvature is somewhere around (500,450).
    Outer radius ~≈500, inner ~≈425.

    We use two cubic beziers:
    Outer: M333,259  C 310,140  430,15  753,112
    Inner: 753,112   C 710,145  610,80  500,75
              then   C 380,70   358,185 358,270  (back toward tail inner edge)
    Close at ~(358,270) back to (333,259).
  -->
  <g>
    <!-- Original icon -->
    <path d="M753,112C662.45,76.7,334.23,63.65,333.68,259.49,237.92,320.8,174.51,420.79,174.51,527.67c0,129.22,104.74,233.91,234,233.91s234-104.74,234-233.91A233.93,233.93,0,0,0,491.82,309c-16.94-6.55-53.74-18.1-83.13-15.62-41.93,26.66-93.06,81.47-117.24,136.06,35.94-43.13,92.12-62,141.88-53.91A154.17,154.17,0,0,1,562.54,527.63c0,85.15-69.31,154.12-154.46,154.12a153.66,153.66,0,0,1-117.24-54c-41.5-48.86-52.2-101.83-43.64-153.6C276.77,292.65,492,189.4,652,149.74c-52.2,27.64-146.33,73-212.22,122.5C631.9,346.43,663,184.44,753,112Z" fill="#000"/>

    <!-- Closing band: bridges the open gap of the spiral to form a clear 6 -->
    <path d="
      M333,259
      C 308,140  410,10  753,112
      C 740,130  720,143  703,150
      C 440,55  348,185  358,268
      Z
    " fill="#000"/>

    <!-- Filled circle centered in the belly of the 6 (center ~408,528, inner space ~r90) -->
    <circle cx="408" cy="528" r="88" fill="#000"/>
  </g>
</svg>
